<svg width="35" height="40" viewBox="0 0 35 40" fill="none" xmlns="http://www.w3.org/2000/svg">
<path d="M0.595542 16.4159L15.7094 0.669231C16.121 0.239778 16.6787 0 17.2725 0C17.8663 0 18.4276 0.240494 18.8361 0.665474L33.9499 16.4121C34.7708 17.2705 34.7399 18.6291 33.8768 19.4487C33.0222 20.2679 31.6502 20.2371 30.8235 19.376L19.4316 7.5047V37.9333C19.4316 39.1187 18.4645 40 17.3535 40C16.2424 40 15.1134 39.1232 15.1134 37.9333V7.5047L3.72402 19.3773C2.89815 20.2362 1.52621 20.263 0.668682 19.4489C-0.194426 18.6257 -0.225374 17.2658 0.595542 16.4159Z" fill="black"/>
</svg>
