<svg width="180" height="180" viewBox="0 0 180 180" fill="none" xmlns="http://www.w3.org/2000/svg">
<rect width="180" height="180" fill="#FFF9EF"/>
<path d="M95.2539 86.9055C95.2539 85.1563 96.6719 83.7383 98.4212 83.7383H100.171C116.463 83.7383 129.67 96.9165 129.67 113.173V145.879C129.67 147.628 128.252 149.046 126.503 149.046H124.754C108.461 149.046 95.2539 135.868 95.2539 119.611V86.9055Z" fill="#1A2497"/>
<path d="M51.0078 48.4318C51.0078 38.949 58.7122 31.2617 68.216 31.2617C77.7198 31.2617 85.4242 38.949 85.4242 48.4318V119.565C85.4242 135.821 72.2167 148.999 55.9244 148.999H54.1751C52.4258 148.999 51.0078 147.581 51.0078 145.832V48.4318Z" fill="#1A2497"/>
<ellipse cx="108.792" cy="60.4532" rx="13.5339" ry="13.504" fill="#F4448E"/>
</svg>
