<svg width="180" height="180" viewBox="0 0 180 180" fill="none" xmlns="http://www.w3.org/2000/svg">
<rect width="180" height="180" fill="#811519"/>
<path d="M77.2897 70.0241H65.4397V130.027H38.6876V70.4295C35.9744 70.1406 33.2896 69.6292 30.6602 68.9005V49.3823C32.5714 49.3823 34.4827 49 36.394 49H127.383C138.086 49.7645 142.673 53.9693 143.055 65.0548C143.437 76.5225 143.055 87.6079 143.055 99.0698C143.055 101.746 143.437 104.804 143.437 107.479C145.754 108.638 148.025 109.796 149.936 110.92V131.191C142.38 131.14 134.839 130.501 127.383 129.28C120.12 128.121 116.297 121.635 115.915 112.484C115.533 101.016 115.915 89.9304 115.915 78.4685V70.0241C112.092 70.0241 108.652 69.6418 104.065 69.6418V130.027H76.9074C77.2897 110.155 77.2897 90.6602 77.2897 70.0241Z" fill="white"/>
</svg>
