<svg width="180" height="180" viewBox="0 0 180 180" fill="none" xmlns="http://www.w3.org/2000/svg">
<rect width="180" height="180" fill="#4B2242"/>
<path d="M54 140.906C54 133.645 59.8327 127.812 67.0936 127.812C74.3546 127.812 80.1873 133.645 80.1873 140.906C80.1873 148.167 74.3546 154 67.0936 154C59.8327 154 54 148.161 54 140.906Z" fill="url(#paint0_linear_1307_91)"/>
<path d="M54 27H100.152C120.374 27 131.266 40.4837 131.266 56.6857C131.266 72.7618 120.374 85.7235 100.152 85.7235H80.1873V113.465H54V27ZM96.7854 48.7767H80.1933V63.9467H96.7854C101.196 63.9467 104.694 60.9643 104.694 56.4277C104.694 51.7591 101.196 48.7767 96.7854 48.7767Z" fill="white"/>
<defs>
<linearGradient id="paint0_linear_1307_91" x1="-24.8197" y1="140.903" x2="587.461" y2="140.903" gradientUnits="userSpaceOnUse">
<stop stop-color="#FF823B"/>
<stop offset="1" stop-color="#F44C75"/>
</linearGradient>
</defs>
</svg>
