<svg width="180" height="180" viewBox="0 0 180 180" fill="none" xmlns="http://www.w3.org/2000/svg">
<rect width="180" height="180" fill="white"/>
<path d="M28.2324 131.438H30.367V142.465H28.2324L23.2518 134.758V142.465H21.1172V131.438H23.2518H23.3703L28.2324 138.908V131.438Z" fill="#939393"/>
<path d="M42.935 131.438V133.454H37.0057V135.707H40.919V137.723H37.0057V140.45H43.0536V142.465H37.0057H34.8711V131.438H42.935Z" fill="#939393"/>
<path d="M48.985 131.438L51.001 138.433C51.7125 136.062 52.3054 133.691 53.017 131.438H54.7957C55.5073 133.691 56.2188 135.944 56.8118 138.196L58.8278 131.438H61.0809L57.6419 142.465H55.9817L53.8472 135.469L51.8312 142.465H50.0523L46.6133 131.438H48.985Z" fill="#939393"/>
<path d="M81.3611 131.438L76.1433 140.568H81.3611V142.465H72.9414L78.1592 133.336H73.4157V131.438H81.3611Z" fill="#939393"/>
<path d="M93.3351 131.438V133.454H87.2868V135.707H91.2002V137.723H87.2868V140.45H93.3351V142.465H87.2868H85.1523V131.438H93.3351Z" fill="#939393"/>
<path d="M99.8598 131.438H102.707L106.62 142.465H104.248L103.3 139.738H99.2678L98.3188 142.465H96.0664L99.8598 131.438ZM102.707 137.96L101.284 133.572L99.9791 137.96H102.707Z" fill="#939393"/>
<path d="M110.176 131.438H112.429V140.45H117.884V142.465H112.429H110.176V140.45V131.438Z" fill="#939393"/>
<path d="M125.119 131.438H127.965L131.878 142.465H129.507L128.558 139.738H124.526L123.577 142.465H121.324L125.119 131.438ZM127.965 137.96L126.542 133.572L125.238 137.96H127.965Z" fill="#939393"/>
<path d="M142.909 131.438H145.044V142.465H142.909L137.928 134.758V142.465H135.793V131.438H137.928H138.047L142.909 138.908V131.438Z" fill="#939393"/>
<path d="M153.582 131.438C155.123 131.438 156.428 132.031 157.495 133.098C158.563 134.165 159.155 135.469 159.155 137.011C159.155 138.552 158.563 139.975 157.495 140.924C156.428 141.872 155.123 142.584 153.582 142.584H151.803H149.668V140.686V133.454V131.557H151.803H153.582V131.438ZM153.582 140.568C155.598 140.568 157.139 138.908 157.139 136.892C157.139 134.877 155.598 133.336 153.582 133.336H151.803V140.568H153.582Z" fill="#939393"/>
<path d="M29.0639 38.1186V90.7649C29.0639 104.163 37.6023 112.583 50.7654 112.583C63.9286 112.583 72.5855 104.163 72.5855 90.5276V45.1144C72.5855 40.1343 74.6015 38.1186 79.5821 38.1186L90.0178 38V45.1144L83.1397 45.2329C81.4795 45.2329 80.6494 46.0629 80.6494 47.7229V91.1202C80.6494 108.551 68.6721 120.17 50.884 120.17C33.0959 120.17 21 108.551 21 91.1202V38.1186H29.0639Z" fill="#E3097F"/>
<path d="M156.309 45.1144H159.036V38H154.293C148.007 38 145.398 39.0672 141.723 44.4029L130.1 62.7817C127.255 66.9317 124.527 71.9117 124.527 71.9117C124.527 71.9117 121.799 66.8131 118.953 62.7817L107.332 44.4029C103.774 39.0672 101.165 38 94.8807 38H90.1367V45.1144H92.8643C95.4728 45.1144 97.4892 45.4701 99.2679 48.0787L119.309 79.026L99.2679 110.092C97.4892 112.701 95.3544 113.056 92.8643 113.056H90.1367V120.17H94.8807C101.165 120.17 103.774 119.104 107.451 113.768L119.072 95.389C121.919 91.2394 124.646 86.259 124.646 86.259C124.646 86.259 127.373 91.3579 130.22 95.389L141.841 113.768C145.518 119.104 148.007 120.17 154.411 120.17H159.155V113.056H156.427C153.819 113.056 151.802 112.701 150.023 110.092L129.863 79.026L149.905 48.0787C151.684 45.4701 153.819 45.1144 156.309 45.1144Z" fill="#178FCF"/>
</svg>
